<?xml version="1.0" encoding="UTF-8"?>
<svg width="512" height="512" viewBox="0 0 512 512" fill="none" xmlns="http://www.w3.org/2000/svg">
  <rect width="512" height="512" rx="20" fill="#EFEBE9"/>
  <path d="M153 320C143.4 320 133.7 325.4 129.6 334.2C125.5 343 127.8 353.4 135 359.9C142.2 366.4 152.8 368 161.4 364.1C170 360.2 175.7 350.7 175.9 340.3C176.1 329.9 170.8 320.2 162.3 316C159.3 314.7 156.2 314 153 314V320Z" fill="#3E2723"/>
  <path d="M359 320C349.4 320 339.7 325.4 335.6 334.2C331.5 343 333.8 353.4 341 359.9C348.2 366.4 358.8 368 367.4 364.1C376 360.2 381.7 350.7 381.9 340.3C382.1 329.9 376.8 320.2 368.3 316C365.3 314.7 362.2 314 359 314V320Z" fill="#3E2723"/>
  <path d="M359 320H153C143.4 320 133.7 325.4 129.6 334.2C125.5 343 127.8 353.4 135 359.9C142.2 366.4 152.8 368 161.4 364.1C170 360.2 175.7 350.7 175.9 340.3C176.1 329.9 170.8 320.2 162.3 316C159.3 314.7 156.2 314 153 314H359C362.2 314 365.3 314.7 368.3 316C376.8 320.2 382.1 329.9 381.9 340.3C381.7 350.7 376 360.2 367.4 364.1C358.8 368 348.2 366.4 341 359.9C333.8 353.4 331.5 343 335.6 334.2C339.7 325.4 349.4 320 359 320Z" fill="#795548"/>
  <path d="M156 130H356V190C356 246.9 309.9 293 253 293H259C202.1 293 156 246.9 156 190V130Z" fill="#5D4037"/>
  <path d="M368 130H144L156 110H356L368 130Z" fill="#4E342E"/>
  <path d="M156 130H356V190C356 246.9 309.9 293 253 293H259C202.1 293 156 246.9 156 190V130Z" fill="url(#paint0_linear_1_40)"/>
  <circle cx="215" cy="180" r="25" fill="#D7CCC8"/>
  <circle cx="256" cy="170" r="18" fill="#D7CCC8"/>
  <circle cx="290" cy="180" r="20" fill="#D7CCC8"/>
  <defs>
    <linearGradient id="paint0_linear_1_40" x1="256" y1="130" x2="256" y2="293" gradientUnits="userSpaceOnUse">
      <stop stop-color="#8D6E63"/>
      <stop offset="1" stop-color="#6D4C41"/>
    </linearGradient>
  </defs>
</svg>