<?xml version="1.0" encoding="UTF-8"?>
<svg width="512" height="512" viewBox="0 0 512 512" fill="none" xmlns="http://www.w3.org/2000/svg">
  <rect width="512" height="512" rx="20" fill="#FAFAFA"/>
  <path d="M153 222C153 204.3 167.3 190 185 190H327C344.7 190 359 204.3 359 222V290C359 307.7 344.7 322 327 322H185C167.3 322 153 307.7 153 290V222Z" fill="#FFCC80"/>
  <path d="M153 235C153 221.2 164.2 210 178 210H334C347.8 210 359 221.2 359 235V260C359 273.8 347.8 285 334 285H178C164.2 285 153 273.8 153 260V235Z" fill="#F57C00"/>
  <rect x="158" y="240" width="196" height="15" fill="#D84315"/>
  <rect x="153" y="202" width="206" height="25" rx="12.5" fill="#FFCC80"/>
  <rect x="153" y="285" width="206" height="25" rx="12.5" fill="#FFCC80"/>
  <circle cx="190" cy="260" r="15" fill="#FF8A65"/>
  <circle cx="230" cy="260" r="15" fill="#FF8A65"/>
  <circle cx="270" cy="260" r="15" fill="#FF8A65"/>
  <circle cx="310" cy="260" r="15" fill="#FF8A65"/>
  <circle cx="350" cy="260" r="15" fill="#FF8A65"/>
  <rect x="170" y="230" width="30" height="5" rx="2.5" fill="#FBE9E7"/>
  <rect x="210" y="230" width="30" height="5" rx="2.5" fill="#FBE9E7"/>
  <rect x="250" y="230" width="30" height="5" rx="2.5" fill="#FBE9E7"/>
  <rect x="290" y="230" width="30" height="5" rx="2.5" fill="#FBE9E7"/>
  <rect x="330" y="230" width="20" height="5" rx="2.5" fill="#FBE9E7"/>
  <rect x="172" y="280" width="25" height="5" rx="2.5" fill="#FFCCBC"/>
  <rect x="212" y="280" width="25" height="5" rx="2.5" fill="#FFCCBC"/>
  <rect x="252" y="280" width="25" height="5" rx="2.5" fill="#FFCCBC"/>
  <rect x="292" y="280" width="25" height="5" rx="2.5" fill="#FFCCBC"/>
  <rect x="332" y="280" width="15" height="5" rx="2.5" fill="#FFCCBC"/>
  <circle cx="190" cy="215" r="10" fill="#E3F2FD"/>
  <circle cx="350" cy="215" r="10" fill="#E3F2FD"/>
</svg>