<?xml version="1.0" encoding="UTF-8"?>
<svg width="512" height="512" viewBox="0 0 512 512" fill="none" xmlns="http://www.w3.org/2000/svg">
  <rect width="512" height="512" rx="20" fill="#FAFAFA"/>
  <path d="M182 350H330C340.5 350 349 341.5 349 331V322.1C349 307.4 339.3 294.3 325.2 290.3L310 286C310 286 295 284 256 284C217 284 202 286 202 286L186.8 290.3C172.7 294.3 163 307.4 163 322.1V331C163 341.5 171.5 350 182 350Z" fill="#6D4C41"/>
  <path d="M153 100H359L332 270H180L153 100Z" fill="#FFCDD2"/>
  <path d="M170 140L342 140L325 230L187 230L170 140Z" fill="#EF9A9A"/>
  <path d="M180 270H332V286C332 286 316 284 256 284C196 284 180 286 180 286V270Z" fill="#E57373"/>
  <path d="M256 300C219.5 300 190 305.8 190 313C190 320.2 219.5 326 256 326C292.5 326 322 320.2 322 313C322 305.8 292.5 300 256 300Z" fill="#C62828"/>
  <path d="M268 130C268 130 293 132 293 150C293 168 268 170 268 170" stroke="white" stroke-width="3" stroke-linecap="round"/>
  <path d="M244 130C244 130 219 132 219 150C219 168 244 170 244 170" stroke="white" stroke-width="3" stroke-linecap="round"/>
  <path d="M250 120C246.7 120 244 122.7 244 126V150C244 153.3 246.7 156 250 156H262C265.3 156 268 153.3 268 150V126C268 122.7 265.3 120 262 120H250Z" fill="#FFEBEE"/>
  <rect x="220" y="180" width="72" height="10" rx="5" fill="#FFEBEE"/>
  <rect x="230" y="200" width="52" height="10" rx="5" fill="#FFEBEE"/>
  <circle cx="212" cy="170" r="5" fill="#E57373"/>
  <circle cx="230" cy="160" r="5" fill="#E57373"/>
  <circle cx="282" cy="160" r="5" fill="#E57373"/>
  <circle cx="300" cy="170" r="5" fill="#E57373"/>
</svg>